<?xml version="1.0" standalone="no"?>
<!DOCTYPE svg PUBLIC "-//W3C//DTD SVG 20010904//EN"
 "http://www.w3.org/TR/2001/REC-SVG-20010904/DTD/svg10.dtd">
<svg version="1.0" xmlns="http://www.w3.org/2000/svg"
 width="512.000000pt" height="512.000000pt" viewBox="0 0 512.000000 512.000000"
 preserveAspectRatio="xMidYMid meet">
<metadata>
Created by potrace 1.11, written by Peter Selinger 2001-2013
</metadata>
<g transform="translate(0.000000,512.000000) scale(0.100000,-0.100000)"
fill="#000000" stroke="none">
<path d="M2394 5061 c-454 -176 -851 -443 -1080 -726 -141 -173 -229 -361
-268 -570 -13 -69 -15 -332 -16 -1923 l0 -1842 1530 0 1530 0 0 1833 c0 1963
1 1894 -49 2069 -66 228 -234 471 -460 662 -81 68 -265 206 -276 206 -2 0 -35
20 -72 43 -92 59 -324 176 -453 227 -93 38 -216 80 -230 80 -3 0 -73 -27 -156
-59z m133 -299 c1 -47 0 -49 -78 -127 l-79 -80 -65 65 c-36 35 -65 67 -65 71
0 4 8 9 18 12 9 3 69 28 132 56 63 28 120 51 125 51 6 0 11 -22 12 -48z m132
28 c27 -10 89 -38 137 -60 l88 -41 -67 -67 -67 -67 -77 78 c-74 75 -77 81 -79
128 -2 27 1 49 6 49 5 0 32 -9 59 -20z m-417 -362 l-77 -77 -77 -1 -78 0 0 98
c0 112 2 116 102 177 l53 33 77 -76 78 -76 -78 -78z m400 138 l59 -59 -70 -71
-71 -71 -70 70 -70 70 67 71 c77 80 65 81 155 -10z m367 58 c25 -15 58 -38 74
-52 26 -25 27 -30 27 -124 l0 -98 -77 0 -78 0 -77 77 -78 78 72 72 c40 40 77
73 82 73 5 0 30 -12 55 -26z m-1069 -189 l0 -85 -78 0 c-73 0 -102 9 -102 32
0 7 169 138 178 138 1 0 2 -38 2 -85z m1390 -24 c49 -41 33 -54 -70 -56 l-80
-1 0 83 0 83 58 -39 c31 -22 73 -53 92 -70z m-890 -166 l-70 -70 -71 71 -71
71 68 70 69 70 73 -71 72 -71 -70 -70z m381 1 l-71 -71 -70 70 -70 69 71 72
71 72 70 -71 69 -71 -70 -70z m-1170 0 c-52 -52 -74 -67 -82 -59 -17 17 121
155 139 140 10 -8 -2 -26 -57 -81z m1900 -59 c-16 -16 -155 121 -140 139 8 10
27 -3 81 -57 54 -53 68 -73 59 -82z m-441 -6 l0 -97 -68 -67 -67 -67 -88 88
-87 87 77 77 c76 75 79 77 133 80 104 6 100 9 100 -101z m261 63 c24 -23 61
-59 82 -81 l38 -40 -87 -86 -87 -86 -69 68 -68 68 0 96 c0 108 -5 102 91 102
52 0 60 -3 100 -41z m-1431 -59 l0 -95 -68 -70 -68 -70 -87 88 -87 88 77 77
77 77 78 0 78 0 0 -95z m303 17 l77 -77 -88 -88 -87 -87 -68 68 -67 68 0 97 0
97 78 0 77 0 78 -78z m390 -10 l67 -68 -70 -69 -70 -69 -70 69 -70 69 67 68
c37 38 70 68 73 68 3 0 36 -30 73 -68z m-1109 -60 c3 -5 -13 -26 -35 -48 l-41
-39 32 48 c33 50 36 52 44 39z m2116 -39 l33 -48 -41 39 c-23 22 -39 43 -36
48 8 12 8 12 44 -39z m-1951 -126 l64 -66 -67 -67 -67 -68 -100 -1 -100 -1 2
78 2 78 79 79 80 79 21 -23 c12 -12 51 -52 86 -88z m761 28 l74 -75 2 -75 c0
-41 -2 -76 -5 -76 -3 -1 -46 -2 -96 -4 l-90 -2 -70 68 -70 68 85 86 c46 47 87
85 90 85 3 0 39 -34 80 -75z m390 -10 l85 -85 -68 -68 -67 -68 -98 1 -97 0 -1
75 -1 75 76 78 c41 42 78 77 81 77 3 0 43 -38 90 -85z m783 8 l77 -77 -3 -76
-2 -75 -95 0 -94 -1 -70 69 -70 68 84 84 c47 47 87 85 91 85 3 0 41 -35 82
-77z m-1499 -121 l144 -143 -136 -135 c-75 -74 -142 -140 -149 -146 -10 -8
-46 22 -159 135 l-145 147 143 144 c79 80 147 144 151 143 4 -1 72 -67 151
-145z m1173 3 l145 -146 -146 -146 -146 -146 -22 19 c-12 10 -78 77 -148 147
l-127 128 146 144 c80 80 147 145 149 145 2 0 69 -65 149 -145z m-1950 -103
c-15 -19 -18 -9 -10 29 6 32 7 33 13 9 4 -14 2 -31 -3 -38z m2442 -1 c1 -10
-2 -11 -13 -2 -8 7 -11 22 -8 39 l6 27 7 -25 c4 -14 7 -31 8 -39z m-2438 -133
c1 -35 0 -72 -1 -83 -2 -21 -30 -58 -38 -50 -10 10 -1 180 11 187 23 15 27 7
28 -54z m335 -12 l67 -67 -41 -42 c-22 -23 -60 -63 -85 -89 l-45 -46 -79 78
-80 78 -1 73 c-1 40 1 75 3 79 2 4 47 6 99 5 l95 -2 67 -67z m840 -6 l2 -74
-78 -80 -78 -80 -49 44 c-26 25 -66 64 -87 88 l-39 43 59 60 c32 34 67 64 77
68 10 4 58 7 105 6 l87 -1 1 -74z m329 10 c36 -35 65 -67 65 -70 0 -8 -162
-170 -170 -170 -3 0 -41 35 -82 78 l-76 77 3 75 c1 41 3 75 4 75 0 0 44 0 96
0 l95 -1 65 -64z m845 -10 l0 -75 -75 -78 c-41 -42 -79 -77 -83 -77 -4 0 -45
38 -91 84 l-84 84 69 69 70 68 97 0 97 0 0 -75z m96 72 c7 -4 12 -45 13 -102
l2 -95 -23 22 c-17 16 -23 31 -21 60 1 21 2 57 2 81 1 42 6 48 27 34z m-1856
-417 l0 -95 -78 0 -79 0 -77 77 -77 77 87 87 87 88 69 -69 68 -69 0 -96z m302
-18 c-84 -84 -82 -83 -199 -78 l-33 1 0 97 0 97 67 68 68 68 87 -87 88 -88
-78 -78z m868 21 l0 -98 -32 -1 c-121 -5 -114 -7 -199 77 l-79 79 87 87 87 88
68 -68 68 -67 0 -97z m367 43 c-7 -8 -41 -43 -76 -78 l-65 -63 -78 0 -78 0 0
95 0 96 68 69 67 68 87 -86 c72 -71 85 -88 75 -101z m-2019 -58 l-72 -72 -41
42 c-40 42 -40 43 -35 105 4 55 10 68 40 102 l35 38 73 -71 72 -72 -72 -72z
m1175 139 l68 -68 -67 -67 c-37 -37 -70 -67 -74 -67 -4 0 -37 30 -73 67 l-67
68 67 67 c37 38 70 68 73 68 3 0 36 -31 73 -68z m1142 32 c36 -34 37 -38 36
-100 -1 -61 -3 -68 -38 -104 l-38 -38 -72 71 -73 71 67 68 c37 38 71 68 74 68
4 0 24 -16 44 -36z m-2123 -221 l68 -67 -72 -73 -71 -72 -70 71 -69 71 68 68
c38 38 71 69 73 69 3 0 36 -30 73 -67z m791 -1 l67 -68 -72 -71 -71 -72 -70
70 -69 71 68 69 c38 38 71 69 74 69 3 0 36 -31 73 -68z m381 -1 l69 -70 -70
-69 -71 -70 -71 71 -71 71 67 68 c37 37 70 68 73 68 3 0 37 -31 74 -69z m790
0 l68 -69 -70 -70 -70 -70 -71 72 -71 71 67 68 c38 37 70 67 73 67 3 0 36 -31
74 -69z m-2284 -66 c0 -8 -4 -17 -10 -20 -6 -4 -10 5 -10 20 0 15 4 24 10 20
6 -3 10 -12 10 -20z m2480 -1 c0 -22 -2 -25 -15 -14 -12 10 -13 16 -4 26 16
20 19 18 19 -12z m-1870 -132 l0 -98 -69 -68 -69 -68 -85 88 -86 89 77 78 77
77 77 0 78 0 0 -98z m303 19 l77 -79 -84 -82 c-46 -46 -87 -83 -91 -83 -4 0
-36 29 -71 64 l-64 63 0 98 0 98 78 0 77 0 78 -79z m867 -19 l0 -98 -68 -67
-68 -67 -86 87 -87 86 77 79 77 78 78 0 77 0 0 -98z m305 18 l79 -79 -88 -87
-88 -86 -69 68 -69 68 0 98 0 98 78 0 77 0 80 -80z m-1954 -9 l67 -68 -72 -72
-72 -71 -38 39 c-37 38 -39 42 -37 102 1 59 4 66 38 101 20 21 39 38 42 38 2
0 35 -31 72 -69z m1172 1 l68 -69 -70 -72 -71 -73 -71 72 -71 73 68 68 c38 38
71 69 74 69 3 0 36 -31 73 -68z m1142 28 c37 -38 38 -41 36 -102 -2 -58 -5
-66 -39 -101 l-36 -37 -73 72 -72 72 67 68 c37 37 69 67 72 68 3 0 23 -18 45
-40z m-2105 -235 l85 -85 -70 -70 -69 -70 -98 0 -97 0 0 78 0 77 77 78 c42 42
79 77 82 77 3 0 43 -38 90 -85z m790 -2 l66 -68 -1 -75 0 -75 -95 -3 -95 -2
-50 48 c-27 27 -59 59 -69 71 l-20 22 84 84 c64 65 87 82 99 75 9 -5 45 -39
81 -77z m380 2 l85 -85 -70 -70 -69 -70 -93 0 c-67 0 -93 4 -94 13 -1 6 -3 41
-3 77 l-2 65 75 77 c42 43 78 78 81 78 3 0 43 -38 90 -85z m860 -147 l0 -78
-98 0 -98 0 -69 70 -69 69 88 87 88 87 79 -79 79 -79 0 -77z m-1503 -183 c-40
-40 -106 -107 -148 -148 l-76 -76 -147 148 -147 147 148 147 148 147 147 -147
147 -146 -72 -72z m1114 200 l129 -129 -147 -148 -147 -147 -147 147 -147 147
146 147 c141 142 147 147 165 130 11 -9 77 -75 148 -147z m-1961 -17 c0 -71
-2 -78 -19 -78 -17 0 -20 8 -23 48 -2 26 -1 71 1 101 l3 55 19 -25 c14 -19 19
-41 19 -101z m2462 8 c-3 -77 -5 -86 -23 -86 -20 0 -22 9 -19 108 1 35 7 60
18 71 24 24 28 8 24 -93z m-2462 -233 c0 -60 -4 -80 -20 -100 l-20 -26 -1 64
c-1 78 2 132 7 141 3 4 11 5 19 1 11 -4 15 -23 15 -80z m334 8 l69 -69 -87
-88 -86 -89 -80 83 -80 82 1 74 c2 86 -3 83 124 78 l70 -2 69 -69z m835 63 c3
-3 6 -36 7 -74 l1 -70 -79 -80 -80 -80 -84 85 c-46 47 -84 88 -84 91 0 8 124
131 137 135 18 6 176 0 182 -7z m336 -57 c36 -36 65 -68 65 -71 0 -3 -38 -44
-85 -91 l-84 -85 -78 79 -77 79 -2 75 -2 76 37 3 c20 2 64 2 99 2 l62 -2 65
-65z m833 63 c8 0 12 -22 12 -75 l0 -76 -77 -79 -78 -80 -88 87 -88 87 73 71
73 70 80 -2 c44 -1 86 -2 93 -3z m124 -22 c5 -39 -3 -168 -11 -168 -17 0 -32
50 -34 118 -2 68 -1 72 20 72 15 0 23 -7 25 -22z m-1940 -235 l68 -67 0 -96 0
-96 -76 -1 -77 -2 -79 78 -80 79 83 86 c46 47 86 86 89 86 2 0 35 -30 72 -67z
m364 -17 l84 -84 -76 -76 c-42 -42 -79 -77 -83 -77 -3 -1 -39 -2 -78 -3 l-73
-2 0 98 0 98 63 64 c34 36 66 65 71 65 4 1 46 -37 92 -83z m810 20 l64 -64 0
-99 0 -99 -72 2 c-40 1 -76 2 -80 3 -3 0 -40 35 -82 77 l-75 76 82 84 c45 46
86 83 90 84 5 0 37 -29 73 -64z m364 -21 l84 -85 -81 -80 -82 -81 -73 3 -73 3
-3 94 -3 95 68 68 c37 37 70 68 73 68 3 0 43 -38 90 -85z m-1949 -14 l69 -69
-72 -71 -72 -71 -38 37 c-36 35 -38 40 -38 102 0 62 2 67 37 103 20 21 39 38
41 38 2 0 35 -31 73 -69z m1173 0 l68 -69 -65 -66 c-36 -36 -71 -66 -77 -66
-6 0 -41 30 -77 66 l-65 67 68 68 c38 38 71 69 74 69 3 0 36 -31 74 -69z
m1138 32 c36 -35 38 -40 38 -103 0 -63 -2 -68 -38 -103 l-37 -36 -68 66 c-37
36 -67 69 -67 74 0 9 121 139 130 139 2 0 21 -17 42 -37z m-2121 -222 l70 -68
-71 -73 -71 -73 -72 71 -72 72 70 70 c38 38 71 70 73 70 2 0 34 -31 73 -69z
m790 0 l70 -69 -71 -73 -71 -72 -72 71 -72 72 70 70 c38 38 71 70 73 70 2 0
35 -31 73 -69z m384 -1 l70 -70 -71 -71 -71 -71 -72 71 -73 70 69 70 c37 39
70 70 73 71 3 0 37 -32 75 -70z m788 -141 l-70 -72 -72 72 -71 72 71 71 71 71
71 -71 71 -71 -71 -72z m-2280 80 c4 -3 1 -12 -8 -19 -13 -11 -15 -9 -15 15 0
16 3 24 8 19 4 -5 11 -11 15 -15z m2479 -4 c-3 -20 -7 -23 -18 -14 -12 10 -11
14 3 25 10 7 19 14 19 14 1 0 -1 -11 -4 -25z m-1872 -135 l0 -96 -70 -69 -71
-70 -85 89 -85 89 73 73 c79 77 83 79 200 79 l38 0 0 -95z m304 16 l76 -77
-85 -84 c-47 -47 -88 -85 -92 -85 -4 0 -35 29 -70 65 l-63 65 0 99 0 98 79 -2
78 -2 77 -77z m866 -19 l0 -99 -64 -64 c-36 -35 -68 -64 -71 -64 -3 0 -44 38
-91 85 l-84 86 78 77 79 77 77 0 76 1 0 -99z m309 18 l76 -75 -85 -85 c-46
-47 -87 -85 -91 -85 -3 0 -36 30 -73 68 l-66 67 0 91 c0 50 2 93 5 96 3 2 39
3 82 1 l77 -3 75 -75z m-1933 -34 l43 -44 -70 -70 -71 -70 -41 41 c-40 40 -40
42 -38 104 2 57 6 66 39 100 l36 38 29 -28 c16 -15 49 -47 73 -71z m1146 -114
l-72 -72 -71 72 -72 72 72 71 72 72 71 -72 71 -72 -71 -71z m1140 176 c36 -35
38 -40 38 -103 0 -64 -1 -67 -39 -104 l-40 -39 -70 71 -71 71 68 69 c37 38 69
70 72 70 2 1 21 -15 42 -35z m-2104 -239 l85 -86 -69 -69 -68 -69 -98 0 -98 0
1 77 1 77 77 78 c42 43 78 78 80 78 3 0 43 -39 89 -86z m779 8 l78 -78 1 -77
0 -77 -98 0 -99 0 -64 64 c-36 36 -65 68 -65 71 0 6 161 173 167 175 1 0 38
-35 80 -78z m473 -96 c0 -4 -28 -36 -62 -71 l-63 -65 -100 0 -101 0 -1 75 -1
75 80 80 79 80 84 -83 c47 -47 85 -87 85 -91z m780 -58 l0 -78 -97 0 c-108 1
-102 -3 -201 102 l-33 35 88 87 87 86 78 -77 78 -78 0 -77z m-1578 -261 l-147
-147 -147 147 -148 148 147 147 147 147 148 -147 147 -147 -147 -148z m1171 1
l-148 -148 -142 142 c-79 79 -143 147 -143 152 0 4 64 73 143 152 l142 143
148 -147 147 -147 -147 -147z m-1943 260 c0 -70 -2 -78 -19 -78 -23 0 -28 29
-23 128 4 62 4 63 23 46 16 -14 19 -31 19 -96z m2463 60 c-1 -29 -2 -72 -2
-95 -1 -36 -4 -43 -21 -43 -22 0 -23 5 -21 99 0 36 6 60 17 72 26 28 29 24 27
-33z m-2461 -268 c3 -70 -3 -103 -26 -126 -17 -16 -18 -11 -18 81 0 96 2 105
21 105 16 0 20 -9 23 -60z m333 -10 l70 -70 -88 -87 -87 -88 -79 79 -79 79 -1
78 -1 79 98 0 98 0 69 -70z m841 -10 l1 -75 -79 -79 -79 -80 -87 87 -87 87 70
70 70 71 95 -3 95 -3 1 -75z m329 10 l70 -70 -87 -87 -87 -87 -77 77 -77 76
-3 72 c-2 39 -1 76 2 80 3 5 47 9 97 9 l93 0 69 -70z m843 -9 l0 -79 -78 -77
-78 -77 -87 87 -88 87 69 69 68 69 97 0 97 0 0 -79z m114 42 c2 -21 2 -66 0
-100 -4 -61 -4 -61 -23 -42 -14 14 -20 34 -21 67 0 105 1 112 21 112 16 0 20
-8 23 -37z m-1940 -220 l68 -67 0 -98 0 -97 -80 2 -80 2 -75 75 -74 75 82 87
c45 48 84 87 87 87 2 1 35 -29 72 -66z m389 -47 l59 -60 -79 -78 -79 -78 -76
0 -76 0 0 97 0 97 67 68 67 68 29 -28 c16 -15 56 -54 88 -86z m841 -11 c4 -5
8 -54 8 -107 l0 -98 -76 0 -77 0 -79 79 -78 78 87 87 87 87 60 -58 c33 -32 64
-62 68 -68z m305 40 l87 -86 -77 -77 -77 -77 -80 -2 -80 -2 0 97 0 96 67 68
c37 38 69 68 71 68 2 0 42 -38 89 -85z m-1906 -59 l28 -28 -71 -71 -71 -71
-41 45 c-40 42 -42 46 -40 103 2 53 6 62 40 97 l38 39 44 -42 c25 -24 58 -56
73 -72z m1131 43 l70 -72 -71 -71 -71 -71 -71 71 -71 72 68 70 c38 39 71 71
72 71 2 1 35 -31 74 -70z m1179 -71 c-2 -58 -5 -66 -40 -102 l-39 -39 -70 70
-70 70 71 72 71 72 40 -40 c38 -39 39 -41 37 -103z m-1355 -138 l54 -55 -70
-70 -70 -70 -71 72 -72 71 69 70 c79 80 63 82 160 -18z m365 -124 l-71 -71
-71 71 -71 71 73 71 73 71 69 -71 69 -71 -71 -71z m791 2 l-71 -72 -70 70 -71
69 72 72 71 72 70 -70 71 -70 -72 -71z m-1958 135 l67 -67 -71 -70 -70 -71
-72 72 -71 71 64 66 c35 36 69 65 75 66 6 0 41 -30 78 -67z m-321 -72 c-4 -4
-11 -10 -15 -15 -5 -5 -8 3 -8 19 0 24 2 26 15 15 9 -7 12 -16 8 -19z m2477 2
c0 -20 -3 -24 -11 -16 -7 7 -9 19 -6 27 10 24 17 19 17 -11z m-1882 -32 c9 -1
12 -27 12 -96 l0 -96 -63 -64 c-35 -36 -68 -65 -73 -65 -5 0 -47 37 -92 83
l-82 83 78 80 78 81 65 -3 c35 -1 70 -2 77 -3z m313 -77 l79 -79 -87 -87 -88
-87 -67 67 -68 66 0 101 0 100 76 -1 76 -1 79 -79z m862 77 c4 -1 7 -45 7 -99
l0 -98 -68 -67 -67 -67 -88 88 -88 88 83 80 83 80 65 -2 c36 -1 68 -3 73 -3z
m309 -74 l80 -79 -79 -83 c-43 -45 -84 -83 -91 -84 -7 0 -42 28 -78 64 l-64
66 0 93 c0 54 4 96 10 98 6 2 40 3 76 4 l67 0 79 -79z m-1950 -150 c-76 -76
-81 -77 -131 -15 -19 24 -24 41 -23 89 0 56 3 63 39 99 l38 38 73 -71 72 -72
-68 -68z m1172 136 l68 -66 -71 -71 -71 -71 -70 70 -70 70 66 68 c36 37 69 67
73 67 4 0 38 -30 75 -67z m1144 33 c30 -31 32 -38 32 -100 0 -63 -2 -68 -36
-101 -20 -19 -39 -35 -42 -35 -4 0 -37 30 -74 67 l-67 68 67 68 c36 37 71 67
77 67 5 0 25 -15 43 -34z m-2124 -223 c23 -22 54 -55 69 -71 l28 -29 -50 -53
-51 -53 -112 -1 -113 -1 -1 64 -2 63 77 78 c86 87 74 87 155 3z m2045 -142
c-1 -50 -4 -61 -17 -62 -9 0 -60 -2 -112 -2 l-95 -2 -54 53 -55 53 88 88 88
88 78 -78 79 -78 0 -60z m-1249 134 l75 -75 1 -60 c1 -38 -3 -60 -10 -61 -6
-1 -57 -2 -114 -3 l-103 -1 -51 52 c-29 29 -50 55 -47 58 35 42 157 163 164
164 6 0 44 -33 85 -74z m387 -5 c43 -44 79 -84 81 -88 1 -4 -20 -29 -47 -56
l-49 -49 -107 -1 c-62 -1 -110 3 -114 9 -5 5 -8 34 -7 62 1 52 3 54 76 128 41
41 78 75 81 75 4 0 42 -36 86 -80z m-753 -76 c58 -58 106 -109 106 -113 0 -4
-390 -7 -434 -2 -9 1 205 220 216 220 4 1 54 -47 112 -105z m1176 -1 c60 -59
106 -110 101 -113 -7 -4 -408 -5 -432 -1 -8 1 203 218 214 220 4 0 57 -47 117
-106z m-1909 -48 c0 -62 -8 -79 -30 -66 -12 8 -16 42 -12 136 l1 29 21 -21
c17 -16 21 -32 20 -78z m2462 19 c-2 -79 -4 -87 -28 -90 -16 -2 -19 16 -15 91
2 35 22 75 39 75 3 0 5 -34 4 -76z"/>
</g>
</svg>
